<svg id="Layer_1" data-name="Layer 1" xmlns="http://www.w3.org/2000/svg" viewBox="0 0 535.04 83.59"><defs><style>.cls-1{fill:#000104;}</style></defs><title>logo</title><path class="cls-1" d="M42.53,80.16a11.2,11.2,0,0,1-8.29,3.43H9.85V73.73H34.24c1.34,0,2-.62,2-1.87V61.2c-.06,1.95-1.7,2.92-4.91,2.92H11.73A11.52,11.52,0,0,1,0,52.38V29.89a11.27,11.27,0,0,1,3.38-8.32,11.35,11.35,0,0,1,8.35-3.42H31.32c3.21,0,4.85,1,4.91,2.92V18.15H46v53.7A11.07,11.07,0,0,1,42.53,80.16Zm-6.3-50.26c0-1.26-.65-1.9-2-1.9H11.73a1.68,1.68,0,0,0-1.88,1.9V52.38c0,1.34.64,2,1.88,2H34.24a1.76,1.76,0,0,0,2-2Z"/><path class="cls-1" d="M62.24,64.12A11.54,11.54,0,0,1,50.5,52.38V48.89c0-3.32,1.85-5.58,5.49-6.81l30.76-9.84V30.92c0-1.94-.67-2.93-2-2.93H62.24a1.68,1.68,0,0,0-1.89,1.9v4.92H50.5V29.89A11.63,11.63,0,0,1,62.24,18.15h22.5a11.21,11.21,0,0,1,8.31,3.42,11.3,11.3,0,0,1,3.44,8.32V64.12Zm24.51-22L64.37,48.79c-2.68.71-4,2-4,3.71a1.67,1.67,0,0,0,1.89,1.89h22.5a1.78,1.78,0,0,0,2-2Z"/><path class="cls-1" d="M202.94,18.15a11.54,11.54,0,0,1,11.75,11.74v3.48c0,3.33-1.85,5.59-5.49,6.81L178.44,50v1.32c0,1.94.67,2.92,2,2.92h22.48a1.68,1.68,0,0,0,1.9-1.89V47.46h9.85v4.92a11.63,11.63,0,0,1-11.75,11.74H180.45a11.72,11.72,0,0,1-11.76-11.74V18.15Zm-24.5,22,22.37-6.69c2.69-.72,4-2,4-3.73a1.68,1.68,0,0,0-1.9-1.88H180.45a1.78,1.78,0,0,0-2,2Z"/><path class="cls-1" d="M154.18,64.12V29.89a1.68,1.68,0,0,0-1.9-1.9H139.53a1.68,1.68,0,0,0-1.9,1.9V64.12h-9.85V29.89A1.67,1.67,0,0,0,125.9,28H113.13a1.67,1.67,0,0,0-1.88,1.9V64.12h-9.87v-46h50.89a11.23,11.23,0,0,1,8.2,3.55A10.86,10.86,0,0,1,164,29.89V64.12Z"/><path class="cls-1" d="M494.37,18.15a11.57,11.57,0,0,1,11.75,11.74v3.48c0,3.33-1.87,5.59-5.5,6.81L469.86,50v1.32c0,1.94.67,2.92,2,2.92h22.5a1.68,1.68,0,0,0,1.9-1.89V47.46h9.85v4.92a11.66,11.66,0,0,1-11.75,11.74h-22.5a11.71,11.71,0,0,1-11.74-11.74V18.15Zm-24.51,22,22.39-6.69c2.68-.72,4-2,4-3.73a1.68,1.68,0,0,0-1.9-1.88h-22.5a1.78,1.78,0,0,0-2,2Z"/><path class="cls-1" d="M228.87,27a2.41,2.41,0,0,1-1.77.74h-4.77a2.44,2.44,0,0,1-1.78-.74,2.37,2.37,0,0,1-.72-1.77V20.45a2.46,2.46,0,0,1,2.5-2.5h4.77a2.49,2.49,0,0,1,2.51,2.5v4.79A2.37,2.37,0,0,1,228.87,27Z"/><path class="cls-1" d="M219.73,64.12V32.7h9.86V64.12Z"/><path class="cls-1" d="M271.53,64.12V29.89c0-1.26-.67-1.9-2-1.9H247a1.68,1.68,0,0,0-1.9,1.9V64.12h-9.85v-46h34.23a11.68,11.68,0,0,1,11.73,11.74V64.12Z"/><path class="cls-1" d="M303,9.84c-1.34,0-2,.64-2,1.89v6.42h9.87V28H301V64.12h-9.71V28h-7.86V18.15h7.86V11.73a11.26,11.26,0,0,1,3.38-8.3A11.29,11.29,0,0,1,303,0h12.65V9.84Z"/><path class="cls-1" d="M522.37,28c-1.35,0-2,.64-2,1.89V64.21h-9.75V29.88a11.61,11.61,0,0,1,11.73-11.73H535V28Z"/><path class="cls-1" d="M375.5,28c-1.34,0-2,.64-2,1.89V64.21h-9.74V29.88a11.26,11.26,0,0,1,3.38-8.31,11.38,11.38,0,0,1,8.35-3.42h12.67V28Z"/><path class="cls-1" d="M355.67,60.75a11.34,11.34,0,0,1-8.32,3.37H324.86a11.54,11.54,0,0,1-11.74-11.74V29.89a11.63,11.63,0,0,1,11.74-11.74h22.49A11.69,11.69,0,0,1,359.1,29.89V52.38A11.45,11.45,0,0,1,355.67,60.75Zm-6.3-30.85c0-1.26-.67-1.9-2-1.9H324.86a1.67,1.67,0,0,0-1.89,1.9V52.38c0,1.34.62,2,1.89,2h22.49a1.78,1.78,0,0,0,2-2Z"/><path class="cls-1" d="M445.61,64.12V29.89a1.68,1.68,0,0,0-1.88-1.9H431a1.68,1.68,0,0,0-1.89,1.9V64.12h-9.83V29.89a1.68,1.68,0,0,0-1.9-1.9H404.55a1.66,1.66,0,0,0-1.87,1.9V64.12h-9.86v-46h50.9a11.23,11.23,0,0,1,8.18,3.55,10.83,10.83,0,0,1,3.55,8.19V64.12Z"/></svg>